<svg xmlns="http://www.w3.org/2000/svg" version="1.1" xmlns:xlink="http://www.w3.org/1999/xlink" xmlns:svgjs="http://svgjs.com/svgjs" width="1920" height="1080" preserveAspectRatio="none" viewBox="0 0 1920 1080"><g mask="url(&quot;#SvgjsMask1010&quot;)" fill="none"><rect width="1920" height="1080" x="0" y="0" fill="#0e2a47"></rect><path d="M347.25 1210.37C612.98 1186.77 733.1 670.74 1247.53 637.49 1761.95 604.24 1898.4 216.48 2147.8 205.49" stroke="rgba(239, 55, 165, 1)" stroke-width="2"></path><path d="M452.39 1129.96C716.6 1077.02 773.61 443.16 1244.35 398.8 1715.08 354.44 1824.43 101.49 2036.3 96.4" stroke="rgba(239, 55, 165, 1)" stroke-width="2"></path><path d="M1085.34 1095.28C1272.64 896.36 1118.55 102.85 1452.56 65.94 1786.56 29.03 1992.32 321.37 2186.99 325.14" stroke="rgba(239, 55, 165, 1)" stroke-width="2"></path><path d="M1072.1 1187.14C1239.18 1031.65 1140.21 345.07 1410.55 339.24 1680.89 333.41 1881.96 791.51 2087.45 814.44" stroke="rgba(239, 55, 165, 1)" stroke-width="2"></path><path d="M1008.86 1121.2C1238 999.85 1254.35 247.94 1551.09 237.09 1847.84 226.24 1926.23 615.89 2093.33 636.69" stroke="rgba(239, 55, 165, 1)" stroke-width="2"></path></g><defs><mask id="SvgjsMask1010"><rect width="1920" height="1080" fill="#ffffff"></rect></mask></defs></svg>